<mxfile host="app.diagrams.net" modified="2023-06-20T14:24:11.856Z" agent="Mozilla/5.0 (Windows NT 10.0; Win64; x64) AppleWebKit/537.36 (KHTML, like Gecko) Chrome/114.0.0.0 Safari/537.36" etag="KnoWpXpv88oGRuO201W3" version="21.4.0" type="github">
  <diagram name="Page-1" id="929967ad-93f9-6ef4-fab6-5d389245f69c">
    <mxGraphModel dx="1430" dy="730" grid="1" gridSize="10" guides="1" tooltips="1" connect="1" arrows="1" fold="1" page="1" pageScale="1.5" pageWidth="1169" pageHeight="826" background="none" math="0" shadow="0">
      <root>
        <mxCell id="0" style=";html=1;" />
        <mxCell id="1" style=";html=1;" parent="0" />
        <mxCell id="1672d66443f91eb5-1" value="&lt;p style=&quot;margin: 0px ; margin-top: 4px ; margin-left: 10px ; text-align: left&quot;&gt;&lt;b&gt;ibd&lt;/b&gt;&amp;nbsp;System DOmain&lt;/p&gt;" style="html=1;strokeWidth=1;shape=mxgraph.sysml.package;html=1;overflow=fill;whiteSpace=wrap;fillColor=none;gradientColor=none;fontSize=12;align=center;labelX=327.64;" parent="1" vertex="1">
          <mxGeometry x="280" y="810" width="1120" height="650" as="geometry" />
        </mxCell>
        <mxCell id="1672d66443f91eb5-23" value="Title" style="text;strokeColor=none;fillColor=none;html=1;fontSize=24;fontStyle=1;verticalAlign=middle;align=center;" parent="1" vertex="1">
          <mxGeometry x="120" y="40" width="1510" height="40" as="geometry" />
        </mxCell>
        <mxCell id="ANLEY5BqChYPsJmcUmeI-1" value="&lt;b&gt;&lt;font style=&quot;font-size: 14px;&quot;&gt;: Energiemanagementsystem&lt;/font&gt;&lt;/b&gt;" style="rounded=0;whiteSpace=wrap;html=1;" vertex="1" parent="1">
          <mxGeometry x="360" y="400" width="240" height="50" as="geometry" />
        </mxCell>
        <mxCell id="ANLEY5BqChYPsJmcUmeI-3" value="&lt;b&gt;&lt;font style=&quot;font-size: 14px;&quot;&gt;: Automatisierungssytem&lt;/font&gt;&lt;/b&gt;" style="rounded=0;whiteSpace=wrap;html=1;" vertex="1" parent="1">
          <mxGeometry x="360" y="670" width="240" height="50" as="geometry" />
        </mxCell>
        <mxCell id="ANLEY5BqChYPsJmcUmeI-4" value="&lt;b&gt;&lt;font style=&quot;font-size: 14px;&quot;&gt;: VPN&lt;/font&gt;&lt;/b&gt;" style="rounded=0;whiteSpace=wrap;html=1;" vertex="1" parent="1">
          <mxGeometry x="640" y="640" width="160" height="50" as="geometry" />
        </mxCell>
        <mxCell id="ANLEY5BqChYPsJmcUmeI-5" value="&lt;b&gt;&lt;font style=&quot;font-size: 14px;&quot;&gt;: OPC UA / MQTT&lt;/font&gt;&lt;/b&gt;" style="rounded=0;whiteSpace=wrap;html=1;" vertex="1" parent="1">
          <mxGeometry x="640" y="494" width="160" height="50" as="geometry" />
        </mxCell>
        <mxCell id="ANLEY5BqChYPsJmcUmeI-6" value="&lt;b&gt;&lt;font style=&quot;font-size: 14px;&quot;&gt;: Industrie-4.0 Komponente&lt;/font&gt;&lt;/b&gt;" style="rounded=0;whiteSpace=wrap;html=1;" vertex="1" parent="1">
          <mxGeometry x="1140" y="577" width="240" height="50" as="geometry" />
        </mxCell>
        <mxCell id="ANLEY5BqChYPsJmcUmeI-7" value="&lt;b&gt;IN&lt;/b&gt;" style="rounded=0;whiteSpace=wrap;html=1;" vertex="1" parent="1">
          <mxGeometry x="400" y="437" width="40" height="25" as="geometry" />
        </mxCell>
        <mxCell id="ANLEY5BqChYPsJmcUmeI-8" value="&lt;b&gt;OUT&lt;/b&gt;" style="rounded=0;whiteSpace=wrap;html=1;" vertex="1" parent="1">
          <mxGeometry x="520" y="437" width="40" height="25" as="geometry" />
        </mxCell>
        <mxCell id="ANLEY5BqChYPsJmcUmeI-15" value="&lt;b&gt;IN&lt;/b&gt;" style="rounded=0;whiteSpace=wrap;html=1;" vertex="1" parent="1">
          <mxGeometry x="400" y="658" width="40" height="25" as="geometry" />
        </mxCell>
        <mxCell id="ANLEY5BqChYPsJmcUmeI-16" value="&lt;b&gt;OUT&lt;/b&gt;" style="rounded=0;whiteSpace=wrap;html=1;" vertex="1" parent="1">
          <mxGeometry x="520" y="658" width="40" height="25" as="geometry" />
        </mxCell>
        <mxCell id="ANLEY5BqChYPsJmcUmeI-17" value="&lt;b&gt;IN&lt;/b&gt;" style="rounded=0;whiteSpace=wrap;html=1;" vertex="1" parent="1">
          <mxGeometry x="1180" y="564" width="40" height="25" as="geometry" />
        </mxCell>
        <mxCell id="ANLEY5BqChYPsJmcUmeI-18" value="&lt;b&gt;OUT&lt;/b&gt;" style="rounded=0;whiteSpace=wrap;html=1;" vertex="1" parent="1">
          <mxGeometry x="1300" y="564" width="40" height="25" as="geometry" />
        </mxCell>
        <mxCell id="ANLEY5BqChYPsJmcUmeI-19" value="&lt;b&gt;IN&lt;/b&gt;" style="rounded=0;whiteSpace=wrap;html=1;" vertex="1" parent="1">
          <mxGeometry x="1180" y="615" width="40" height="25" as="geometry" />
        </mxCell>
        <mxCell id="ANLEY5BqChYPsJmcUmeI-20" value="&lt;b&gt;OUT&lt;/b&gt;" style="rounded=0;whiteSpace=wrap;html=1;" vertex="1" parent="1">
          <mxGeometry x="1300" y="615" width="40" height="25" as="geometry" />
        </mxCell>
        <mxCell id="ANLEY5BqChYPsJmcUmeI-22" value="&lt;span style=&quot;color: rgb(32, 33, 36); font-family: &amp;quot;Google Sans&amp;quot;, arial, sans-serif; text-align: left; background-color: rgb(255, 255, 255);&quot;&gt;&lt;font size=&quot;1&quot; style=&quot;&quot;&gt;&lt;b style=&quot;font-size: 24px;&quot;&gt;⇔&lt;/b&gt;&lt;/font&gt;&lt;/span&gt;" style="rounded=0;whiteSpace=wrap;html=1;" vertex="1" parent="1">
          <mxGeometry x="620" y="506.5" width="40" height="25" as="geometry" />
        </mxCell>
        <mxCell id="ANLEY5BqChYPsJmcUmeI-26" value="&lt;span style=&quot;color: rgb(32, 33, 36); font-family: &amp;quot;Google Sans&amp;quot;, arial, sans-serif; text-align: left; background-color: rgb(255, 255, 255);&quot;&gt;&lt;font size=&quot;1&quot; style=&quot;&quot;&gt;&lt;b style=&quot;font-size: 24px;&quot;&gt;⇔&lt;/b&gt;&lt;/font&gt;&lt;/span&gt;" style="rounded=0;whiteSpace=wrap;html=1;" vertex="1" parent="1">
          <mxGeometry x="780" y="506.5" width="40" height="25" as="geometry" />
        </mxCell>
        <mxCell id="ANLEY5BqChYPsJmcUmeI-27" value="&lt;span style=&quot;color: rgb(32, 33, 36); font-family: &amp;quot;Google Sans&amp;quot;, arial, sans-serif; text-align: left; background-color: rgb(255, 255, 255);&quot;&gt;&lt;font size=&quot;1&quot; style=&quot;&quot;&gt;&lt;b style=&quot;font-size: 24px;&quot;&gt;⇔&lt;/b&gt;&lt;/font&gt;&lt;/span&gt;" style="rounded=0;whiteSpace=wrap;html=1;" vertex="1" parent="1">
          <mxGeometry x="620" y="653" width="40" height="25" as="geometry" />
        </mxCell>
        <mxCell id="ANLEY5BqChYPsJmcUmeI-28" value="&lt;span style=&quot;color: rgb(32, 33, 36); font-family: &amp;quot;Google Sans&amp;quot;, arial, sans-serif; text-align: left; background-color: rgb(255, 255, 255);&quot;&gt;&lt;font size=&quot;1&quot; style=&quot;&quot;&gt;&lt;b style=&quot;font-size: 24px;&quot;&gt;⇔&lt;/b&gt;&lt;/font&gt;&lt;/span&gt;" style="rounded=0;whiteSpace=wrap;html=1;" vertex="1" parent="1">
          <mxGeometry x="780" y="653" width="40" height="25" as="geometry" />
        </mxCell>
      </root>
    </mxGraphModel>
  </diagram>
</mxfile>
